Love for All and Sharing is the first step to solving all the problems of humanity.

Website I want to share. 
               
   http://www.scenetime.com
 
 
  Credit to EVERYONE for sharing and seeding back
 especially to SCENETIME.COM where i get all my 
 downloads.


 support www.scenetime.com to grow faster.

                             
                                                            
                                                   

.                 ..................................NFO:....................................*******************************************************************************
              Black.Tower.Temptation.2009.DVDRip.AC3.X264-BARC0DE
*******************************************************************************

-------------------------------------------------------------------------------
                              General Information
-------------------------------------------------------------------------------
Type.................: Movie
Name.................: Black Tower Temptation
Movie Information....: http://www.imdb.com/title/tt1223416/
Genre................: Fantasy | Horror | Thriller
-------------------------------------------------------------------------------
                                    PLOT
-------------------------------------------------------------------------------
After a heavy night out with the girls, Isabel, and attractive young professional 
woman catches an illegal mini-cab home. Things take a turn for the worse when the 
cabbie pulls her into an ally and violently forces himself onto her, taking her life. 
From high above on the rooftop, an ancient female Vampire notices. Taken in by 
Isabel's beauty and innocence, she dispatches the Cabbie and feeds Isabel a drop of 
her immortal blood. Isabel awakes with 48 hours to decide whether to embrace 
immortality, or kill herself before she becomes undead. 

-------------------------------------------------------------------------------
                                    CAST
-------------------------------------------------------------------------------
Caroline Haines	... 	Isabel
Laura Evans	... 	Kylie
Rachel Waters	... 	Aurelie
Damian Morter	... 	Jean Pierre
Laura Lagercrantz	... 	Rebecca
Reena Lalbihari	... 	Alyssa
Alyona Kazarova	... 	Anne-Sophie
Ellie Jeffreys	... 	Clarabelle
Faith Hanstater	... 	Fran
Fred Joho	... 	Reggie
Jim Ford	... 	Harold Steams
Christien Le Roux	... 	Imogen

-------------------------------------------------------------------------------
                                    MEDiA iNFO
-------------------------------------------------------------------------------

General
Complete name                    : Black.Tower.Temptation.2009.DVDRip.AC3.X264-BARC0DE.mkv
Format                           : Matroska
File size                        : 1.08 GiB
Duration                         : 1h 25mn
Overall bit rate                 : 1 817 Kbps


Video
ID                               : 1
Format                           : AVC
Format/Info                      : Advanced Video Codec
Format profile                   : High@L3.0
Format settings, CABAC           : Yes
Format settings, ReFrames        : 3 frames
Muxing mode                      : Container profile=Unknown@3.0
Codec ID                         : V_MPEG4/ISO/AVC
Duration                         : 1h 25mn
Bit rate                         : 1 387 Kbps
Width                            : 720 pixels
Height                           : 352 pixels
Display aspect ratio             : 2.045
Frame rate                       : 25.000 fps
Color space                      : YUV
Chroma subsampling               : 4:2:0
Bit depth                        : 8 bits
Scan type                        : Progressive
Bits/(Pixel*Frame)               : 0.219
Stream size                      : 812 MiB (73%)
Writing library                  : x264 core 79


Audio
ID                               : 2
Format                           : AC-3
Format/Info                      : Audio Coding 3
Mode extension                   : CM (complete main)
Codec ID                         : A_AC3
Duration                         : 1h 25mn
Bit rate mode                    : Constant
Bit rate                         : 448 Kbps
Channel(s)                       : 6 channels
Channel positions                : Front: L C R, Side: L R, LFE
Sampling rate                    : 48.0 KHz
Stream size                      : 273 MiB (25%)
Language                         : English

Menu
00:00:00.000                     : Chapter 1
00:08:46.120                     : Chapter 2
00:17:35.560                     : Chapter 3
00:27:06.280                     : Chapter 4
00:38:31.720                     : Chapter 5
00:46:19.240                     : Chapter 6
00:55:21.640                     : Chapter 7
01:03:14.440                     : Chapter 8
01:12:03.880                     : Chapter 9
01:18:30.280                     : Chapter 10
01:25:10.120                     : Chapter 11